<?xml version="1.0" standalone="no"?>
<!DOCTYPE svg PUBLIC "-//W3C//DTD SVG 20010904//EN"
 "http://www.w3.org/TR/2001/REC-SVG-20010904/DTD/svg10.dtd">
<svg version="1.0" xmlns="http://www.w3.org/2000/svg"
 width="493.000000pt" height="493.000000pt" viewBox="0 0 493.000000 493.000000"
 preserveAspectRatio="xMidYMid meet">
<metadata>
Created by potrace 1.14, written by Peter Selinger 2001-2017
</metadata>
<g transform="translate(0.000000,493.000000) scale(0.100000,-0.100000)"
fill="#000000" stroke="none">
<path d="M1361 3331 c-10 -7 -13 -83 -13 -361 0 -193 -1 -350 -3 -348 -2 1
-60 145 -130 318 -70 173 -134 332 -143 353 l-16 37 -80 0 -81 0 -139 -348
c-77 -191 -146 -362 -153 -379 l-13 -33 93 0 92 0 28 75 28 75 92 1 c51 0 114
1 140 1 26 0 51 -3 55 -7 4 -3 18 -37 32 -73 l26 -67 172 -3 c134 -2 172 0
172 10 1 7 1 76 1 152 0 76 1 137 3 135 4 -5 87 -114 165 -216 l63 -83 192 0
193 0 -1 159 c-1 105 2 156 9 151 5 -5 69 -76 140 -159 l130 -151 119 0 c123
0 126 1 86 40 -41 39 -310 352 -310 361 0 9 82 112 110 139 3 3 28 32 55 65
28 33 64 75 80 93 56 63 57 62 -55 62 -68 0 -105 -4 -113 -12 -7 -7 -39 -44
-71 -83 -61 -73 -118 -141 -157 -188 l-24 -28 0 153 0 153 -86 3 -86 3 0 -366
c0 -201 -2 -367 -4 -369 -2 -3 -46 46 -96 107 -50 62 -105 128 -122 147 -30
35 -30 35 -8 43 74 28 127 106 131 195 4 81 -11 126 -56 171 -57 57 -101 69
-274 70 -81 1 -150 4 -154 6 -3 2 -12 0 -19 -4z m285 -159 c47 -25 49 -120 4
-154 -14 -10 -48 -20 -77 -23 l-53 -4 1 97 c0 53 5 100 10 103 13 8 89 -5 115
-19z m-627 -187 c23 -58 41 -107 41 -108 0 -2 -149 -1 -161 2 -6 1 71 211 77
211 1 0 21 -47 43 -105z"/>
<path d="M103 2950 l0 -380 86 0 87 0 -1 136 c0 75 2 139 5 142 3 4 42 7 87 8
96 1 155 20 202 66 49 48 65 85 67 164 5 117 -45 191 -153 230 -26 9 -92 13
-209 14 l-171 0 0 -380z m307 226 c9 -4 21 -16 29 -27 49 -80 -3 -153 -112
-158 l-52 -2 1 97 c1 61 6 99 13 104 12 7 91 -3 121 -14z"/>
<path d="M1047 2469 c-180 -29 -319 -196 -320 -384 0 -231 166 -402 388 -398
171 3 308 109 362 278 6 17 11 64 12 106 7 248 -202 436 -442 398z m149 -182
c94 -49 135 -192 90 -310 -30 -80 -116 -134 -191 -122 -63 11 -77 17 -115 51
-111 100 -79 325 54 385 47 21 117 19 162 -4z"/>
<path d="M3340 2472 c-161 -22 -299 -152 -327 -308 -47 -255 120 -472 366
-476 158 -2 282 75 354 222 28 59 31 73 31 165 0 81 -4 111 -22 157 -27 67
-105 157 -166 193 -63 36 -166 57 -236 47z m100 -172 c21 -6 49 -19 64 -31 73
-57 100 -197 57 -294 -35 -80 -74 -111 -147 -118 -124 -13 -210 65 -221 199
-13 166 104 282 247 244z"/>
<path d="M103 2080 l0 -380 86 0 87 0 -1 143 c0 78 1 147 2 152 2 6 50 10 121
10 l117 0 3 -153 3 -153 87 3 87 3 0 365 c1 201 -1 371 -3 378 -3 8 -30 12
-88 12 l-84 0 0 -149 0 -150 -47 -3 c-27 -2 -82 -2 -123 0 l-75 3 1 150 1 149
-87 0 -87 0 0 -380z"/>
<path d="M1523 2080 l0 -380 87 0 86 0 -1 124 c0 69 2 134 5 145 4 16 28 -9
115 -124 l110 -144 193 0 192 -1 0 380 0 380 -88 0 -87 0 0 -371 0 -371 -28
34 c-16 18 -39 44 -51 58 -12 14 -51 61 -86 105 -35 44 -69 83 -75 88 -6 4 -5
10 5 16 81 49 92 59 117 109 43 88 29 199 -34 264 -51 53 -115 68 -297 68
l-163 0 0 -380z m314 206 c36 -42 27 -116 -17 -143 -28 -18 -120 -26 -121 -11
-4 51 -4 175 -1 182 3 4 30 6 60 4 45 -4 60 -10 79 -32z"/>
<path d="M2389 2458 c-5 -14 -4 -140 1 -143 4 -3 77 -5 162 -6 l156 -1 -64
-101 c-34 -56 -82 -133 -105 -172 -23 -38 -80 -130 -125 -202 l-83 -133 329 0
329 0 0 71 c-1 53 -4 72 -16 76 -9 3 -86 6 -172 7 -101 1 -155 5 -154 11 1 6
80 137 175 290 96 154 177 286 182 293 6 9 -58 12 -303 12 -171 0 -311 -1
-312 -2z"/>
<path d="M3800 2080 l0 -381 87 3 87 3 0 233 c-1 127 1 232 2 232 2 0 22 -30
44 -67 23 -38 72 -115 110 -173 38 -58 86 -133 107 -167 l38 -63 88 0 87 0 0
380 0 380 -85 0 c-81 0 -85 -1 -86 -22 0 -13 0 -119 0 -237 l0 -214 -48 74
c-57 87 -137 212 -207 321 l-49 78 -87 0 -88 0 0 -380z"/>
</g>
</svg>
